<?xml version="1.0" encoding="UTF-8" standalone="no"?><!DOCTYPE svg PUBLIC "-//W3C//DTD SVG 1.1//EN" "http://www.w3.org/Graphics/SVG/1.1/DTD/svg11.dtd"><svg width="100%" height="100%" viewBox="0 0 164 164" version="1.1" xmlns="http://www.w3.org/2000/svg" xmlns:xlink="http://www.w3.org/1999/xlink" xml:space="preserve" xmlns:serif="http://www.serif.com/" style="fill-rule:evenodd;clip-rule:evenodd;stroke-linejoin:round;stroke-miterlimit:2;"><path d="M163.498,42.656c0,-23.543 -19.113,-42.656 -42.656,-42.656l-78.186,0c-23.543,0 -42.656,19.113 -42.656,42.656l0,78.186c0,23.543 19.113,42.656 42.656,42.656c-0,0 78.186,0 78.186,0c23.543,0 42.656,-19.113 42.656,-42.656c0,0 0,-78.186 0,-78.186Z" style="fill:#ff6a13;"/><path d="M105.052,85.966l0,34.621l11.097,0l-0,-77.676l-11.097,-0l0,32.402l-46.606,0l0,-32.402l-11.097,-0l0,77.676l11.097,0l0,-34.621l46.606,-0Z" style="fill:#101820;fill-rule:nonzero;"/><rect x="47.349" y="136.901" width="68.799" height="10.653" style="fill:#101820;"/></svg>