<?xml version="1.0" encoding="UTF-8" standalone="no"?><!DOCTYPE svg PUBLIC "-//W3C//DTD SVG 1.1//EN" "http://www.w3.org/Graphics/SVG/1.1/DTD/svg11.dtd"><svg width="100%" height="100%" viewBox="0 0 858 164" version="1.1" xmlns="http://www.w3.org/2000/svg" xmlns:xlink="http://www.w3.org/1999/xlink" xml:space="preserve" xmlns:serif="http://www.serif.com/" style="fill-rule:evenodd;clip-rule:evenodd;stroke-linecap:round;stroke-linejoin:round;stroke-miterlimit:1.5;"><path d="M159.936,42.656c-0,-21.576 -17.517,-39.093 -39.094,-39.093l-78.186,-0c-21.576,-0 -39.094,17.517 -39.094,39.093l0,78.186c0,21.577 17.518,39.094 39.094,39.094l78.186,-0c21.577,-0 39.094,-17.517 39.094,-39.094l-0,-78.186Z" style="fill:#ff6a13;stroke:#ff6a13;stroke-width:7.13px;"/><path d="M333.559,42.656c0,-21.576 -17.517,-39.093 -39.093,-39.093l-78.187,-0c-21.576,-0 -39.093,17.517 -39.093,39.093l-0,78.186c-0,21.577 17.517,39.094 39.093,39.094l78.187,-0c21.576,-0 39.093,-17.517 39.093,-39.094l0,-78.186Z" style="fill:#7ba7bc;stroke:#7ba7bc;stroke-width:7.13px;"/><path d="M507.182,42.656c0,-21.576 -17.517,-39.094 -39.093,-39.094l-78.187,0.001c-21.576,-0 -39.093,17.517 -39.093,39.093l0,78.186c0,21.577 17.517,39.094 39.093,39.094l78.187,-0c21.576,-0 39.093,-17.517 39.093,-39.094l0,-78.186Z" style="fill:#f0f1f3;"/><path d="M510.745,42.656c-0,-23.543 -19.114,-42.656 -42.656,-42.656l-78.187,0c-23.542,0 -42.655,19.113 -42.655,42.656c-0,-0 -0,78.186 -0,78.186c-0,23.543 19.113,42.656 42.655,42.656l78.187,0c23.542,0 42.656,-19.113 42.656,-42.656c-0,0 -0,-78.186 -0,-78.186Zm-7.125,-0l-0,78.186c-0,19.61 -15.921,35.531 -35.531,35.531c-0,0 -78.187,0 -78.187,0c-19.61,0 -35.53,-15.921 -35.53,-35.531l-0,-78.186c-0,-19.61 15.92,-35.531 35.53,-35.531c0,-0 78.187,-0 78.187,-0c19.61,-0 35.531,15.921 35.531,35.531Z" style="fill:#d9dadc;"/><path d="M680.806,42.656c-0,-21.576 -17.518,-39.093 -39.094,-39.093l-78.186,-0c-21.577,-0 -39.094,17.517 -39.094,39.093l0,78.186c0,21.577 17.517,39.094 39.094,39.094l78.186,-0c21.576,-0 39.094,-17.517 39.094,-39.094l-0,-78.186Z" style="fill:#f0f1f3;"/><path d="M684.368,42.656c0,-23.543 -19.113,-42.656 -42.656,-42.656l-78.186,0c-23.543,0 -42.656,19.113 -42.656,42.656l-0,78.186c-0,23.543 19.113,42.656 42.656,42.656l78.186,0c23.543,0 42.656,-19.113 42.656,-42.656c0,0 0,-78.186 0,-78.186Zm-7.125,-0l0,78.186c0,19.61 -15.921,35.531 -35.531,35.531c0,0 -78.186,0 -78.186,0c-19.61,0 -35.531,-15.921 -35.531,-35.531c-0,0 -0,-78.186 -0,-78.186c-0,-19.61 15.921,-35.531 35.531,-35.531c-0,0 78.186,0 78.186,0c19.61,0 35.531,15.921 35.531,35.531Z" style="fill:#d9dadc;"/><path d="M854.429,42.656c-0,-21.576 -17.517,-39.094 -39.094,-39.094l-78.186,0.001c-21.576,-0 -39.093,17.517 -39.093,39.093l-0,78.186c-0,21.577 17.517,39.094 39.093,39.094l78.186,-0c21.577,-0 39.094,-17.517 39.094,-39.094l-0,-78.186Z" style="fill:#7ba7bc;stroke:#7ba7bc;stroke-width:7.13px;"/><path d="M255.372,121.697c24.191,0 41.058,-17.866 41.058,-39.948c0,-22.082 -16.867,-39.948 -41.058,-39.948c-24.19,0 -41.057,17.866 -41.057,39.948c-0,22.082 16.867,39.948 41.057,39.948Zm0,-10.653c-18.309,0 -29.961,-12.872 -29.961,-29.295c0,-16.423 11.652,-29.295 29.961,-29.295c18.31,-0 29.961,12.872 29.961,29.295c0,16.423 -11.651,29.295 -29.961,29.295Z" style="fill:#101820;fill-rule:nonzero;"/><path d="M453.408,42.911l0,59.811l-48.825,-59.811l-9.987,-0l0,77.676l11.097,0l-0,-59.7l48.825,59.7l9.987,0l-0,-77.676l-11.097,-0Z" style="fill:#101820;fill-rule:nonzero;"/><path d="M601.375,42.911l-30.515,-0l-0,77.676l30.515,0c23.081,0 40.503,-16.756 40.503,-38.838c0,-22.082 -17.422,-38.838 -40.503,-38.838Zm0,67.024l-19.419,-0l0,-56.371l19.419,-0c17.2,-0 29.407,11.762 29.407,28.185c-0,16.423 -12.207,28.186 -29.407,28.186Z" style="fill:#101820;fill-rule:nonzero;"/><path d="M776.242,121.697c24.191,0 41.058,-17.866 41.058,-39.948c-0,-22.082 -16.867,-39.948 -41.058,-39.948c-24.191,0 -41.057,17.866 -41.057,39.948c-0,22.082 16.866,39.948 41.057,39.948Zm0,-10.653c-18.309,0 -29.961,-12.872 -29.961,-29.295c0,-16.423 11.652,-29.295 29.961,-29.295c18.31,-0 29.961,12.872 29.961,29.295c0,16.423 -11.651,29.295 -29.961,29.295Z" style="fill:#101820;fill-rule:nonzero;"/><path d="M105.052,85.966l0,34.621l11.097,0l-0,-77.676l-11.097,-0l0,32.402l-46.606,0l0,-32.402l-11.097,-0l0,77.676l11.097,0l0,-34.621l46.606,-0Z" style="fill:#101820;fill-rule:nonzero;"/></svg>