<?xml version="1.0" encoding="UTF-8" standalone="no"?><!DOCTYPE svg PUBLIC "-//W3C//DTD SVG 1.1//EN" "http://www.w3.org/Graphics/SVG/1.1/DTD/svg11.dtd"><svg width="100%" height="100%" viewBox="0 0 164 164" version="1.1" xmlns="http://www.w3.org/2000/svg" xmlns:xlink="http://www.w3.org/1999/xlink" xml:space="preserve" xmlns:serif="http://www.serif.com/" style="fill-rule:evenodd;clip-rule:evenodd;stroke-linecap:round;stroke-linejoin:round;stroke-miterlimit:1.5;"><path d="M159.936,42.656c-0,-21.576 -17.517,-39.094 -39.094,-39.094l-78.186,0.001c-21.576,-0 -39.094,17.517 -39.094,39.093l0,78.186c0,21.577 17.518,39.094 39.094,39.094l78.186,-0c21.577,-0 39.094,-17.517 39.094,-39.094l-0,-78.186Z" style="fill:#ff6a13;stroke:#ff6a13;stroke-width:7.13px;"/><path d="M105.052,85.966l0,-10.653l-46.606,0l0,-32.402l-11.097,-0l0,77.676l11.097,0l0,-34.621l46.606,-0Zm11.097,-43.055l-11.097,-0l0,77.676l11.097,0l-0,-77.676Z" style="fill:#101820;fill-rule:nonzero;"/></svg>