<?xml version="1.0" standalone="no"?>
<!DOCTYPE svg PUBLIC "-//W3C//DTD SVG 20010904//EN"
 "http://www.w3.org/TR/2001/REC-SVG-20010904/DTD/svg10.dtd">
<svg version="1.0" xmlns="http://www.w3.org/2000/svg"
 width="512.000000pt" height="512.000000pt" viewBox="0 0 512.000000 512.000000"
 preserveAspectRatio="xMidYMid meet">
<metadata>
Created by potrace 1.14, written by Peter Selinger 2001-2017
</metadata>
<g transform="translate(0.000000,512.000000) scale(0.100000,-0.100000)"
fill="#000000" stroke="none">
<path d="M1170 5110 c-25 -5 -61 -11 -80 -15 -158 -28 -334 -98 -475 -187
-107 -67 -261 -209 -331 -303 -16 -22 -33 -44 -37 -50 -27 -34 -83 -129 -109
-184 -65 -141 -72 -162 -105 -296 l-27 -110 -3 -1365 c-1 -817 2 -1387 7
-1420 6 -30 13 -75 16 -100 3 -25 8 -48 11 -53 2 -4 7 -20 9 -35 7 -39 49
-151 84 -228 41 -87 83 -155 144 -234 211 -275 494 -446 841 -510 94 -17 185
-18 1440 -19 737 0 1360 4 1385 8 25 5 64 12 88 15 110 15 325 96 444 167 175
106 355 287 460 464 74 124 149 323 164 436 2 14 8 53 13 85 6 36 9 581 9
1394 0 1246 -1 1341 -18 1430 -26 138 -42 194 -84 295 -178 429 -566 734
-1031 809 -76 12 -306 14 -1430 14 -737 0 -1360 -4 -1385 -8z"/>
</g>
</svg>
